<svg width="1135" height="392" viewBox="0 0 1135 392" fill="none" xmlns="http://www.w3.org/2000/svg">
<g clip-path="url(#clip0_2012_2)">
<path opacity="0.9" d="M86.6357 105.669C53.6491 129.786 45.8123 175.435 69.1317 207.629C92.4512 239.823 138.096 246.37 171.083 222.253C204.07 198.135 211.906 152.486 188.587 120.292C165.267 88.0983 119.622 81.5511 86.6357 105.669Z" fill="url(#paint0_radial_2012_2)"/>
<path d="M300.083 249V144H343.283C350.483 144 356.583 145.15 361.583 147.45C366.583 149.75 370.383 152.95 372.983 157.05C375.583 161.05 376.883 165.7 376.883 171C376.883 176.3 375.733 180.75 373.433 184.35C371.133 187.95 368.083 190.75 364.283 192.75C360.483 194.65 356.383 195.75 351.983 196.05L354.383 194.4C359.183 194.6 363.433 195.9 367.133 198.3C370.933 200.6 373.883 203.7 375.983 207.6C378.183 211.5 379.283 215.75 379.283 220.35C379.283 225.95 377.933 230.9 375.233 235.2C372.533 239.5 368.583 242.9 363.383 245.4C358.283 247.8 352.033 249 344.633 249H300.083ZM320.333 232.5H341.483C346.983 232.5 351.233 231.25 354.233 228.75C357.233 226.25 358.733 222.65 358.733 217.95C358.733 213.25 357.183 209.6 354.083 207C350.983 204.3 346.683 202.95 341.183 202.95H320.333V232.5ZM320.333 187.8H339.983C345.183 187.8 349.183 186.6 351.983 184.2C354.783 181.8 356.183 178.4 356.183 174C356.183 169.7 354.783 166.35 351.983 163.95C349.183 161.45 345.083 160.2 339.683 160.2H320.333V187.8ZM427.182 250.8C419.982 250.8 413.482 249.15 407.682 245.85C401.882 242.55 397.282 237.95 393.882 232.05C390.582 226.15 388.932 219.4 388.932 211.8C388.932 204.1 390.632 197.35 394.032 191.55C397.432 185.65 402.032 181.05 407.832 177.75C413.632 174.45 420.082 172.8 427.182 172.8C434.382 172.8 440.882 174.45 446.682 177.75C452.482 181.05 457.032 185.65 460.332 191.55C463.732 197.35 465.432 204.1 465.432 211.8C465.432 219.5 463.732 226.3 460.332 232.2C456.932 238 452.332 242.55 446.532 245.85C440.832 249.15 434.382 250.8 427.182 250.8ZM427.032 233.7C430.332 233.7 433.282 232.9 435.882 231.3C438.582 229.6 440.732 227.15 442.332 223.95C444.032 220.65 444.882 216.6 444.882 211.8C444.882 206.9 444.032 202.85 442.332 199.65C440.732 196.35 438.582 193.9 435.882 192.3C433.282 190.7 430.432 189.9 427.332 189.9C424.132 189.9 421.182 190.7 418.482 192.3C415.782 193.9 413.632 196.35 412.032 199.65C410.432 202.85 409.632 206.9 409.632 211.8C409.632 216.6 410.432 220.65 412.032 223.95C413.632 227.15 415.732 229.6 418.332 231.3C421.032 232.9 423.932 233.7 427.032 233.7ZM510.022 250.8C503.022 250.8 496.872 249.15 491.572 245.85C486.272 242.45 482.122 237.8 479.122 231.9C476.222 226 474.772 219.3 474.772 211.8C474.772 204.3 476.222 197.6 479.122 191.7C482.122 185.8 486.322 181.2 491.722 177.9C497.122 174.5 503.422 172.8 510.622 172.8C516.322 172.8 521.272 173.9 525.472 176.1C529.772 178.3 533.122 181.05 535.522 184.35V143.25H555.772V249H538.522L537.172 236.55H536.722C534.922 239.45 532.722 241.95 530.122 244.05C527.522 246.15 524.572 247.8 521.272 249C517.972 250.2 514.222 250.8 510.022 250.8ZM515.572 233.85C519.672 233.85 523.222 232.9 526.222 231C529.322 229.1 531.722 226.5 533.422 223.2C535.122 219.9 535.972 216.05 535.972 211.65C535.972 207.35 535.122 203.55 533.422 200.25C531.722 196.95 529.322 194.35 526.222 192.45C523.222 190.55 519.672 189.6 515.572 189.6C511.572 189.6 508.022 190.55 504.922 192.45C501.922 194.35 499.572 196.95 497.872 200.25C496.172 203.55 495.322 207.35 495.322 211.65C495.322 216.05 496.172 219.9 497.872 223.2C499.572 226.5 501.922 229.1 504.922 231C508.022 232.9 511.572 233.85 515.572 233.85ZM581.886 279.75L599.286 240.6H594.936L564.486 174.6H586.536L608.136 222.75H608.586L627.786 174.6H649.386L603.336 279.75H581.886Z" fill="#1A1A2E"/>
<path d="M665.226 139.909H676.732L716.309 234.937H717.268L756.845 139.909H768.351V249H758.976V160.95H758.124L721.316 249H712.261L675.453 160.95H674.601V249H665.226V139.909ZM818.236 250.864C813.299 250.864 808.79 249.906 804.706 247.988C800.622 246.035 797.373 243.229 794.958 239.572C792.543 235.879 791.336 231.404 791.336 226.148C791.336 222.1 792.099 218.691 793.626 215.921C795.153 213.151 797.319 210.879 800.125 209.103C802.93 207.327 806.25 205.925 810.086 204.895C813.921 203.865 818.147 203.066 822.763 202.498C827.344 201.93 831.215 201.433 834.375 201.006C837.571 200.58 840.004 199.906 841.673 198.982C843.342 198.059 844.177 196.567 844.177 194.508V192.59C844.177 187.015 842.508 182.629 839.169 179.433C835.867 176.202 831.108 174.586 824.894 174.586C818.999 174.586 814.187 175.882 810.459 178.474C806.765 181.067 804.173 184.121 802.682 187.636L793.679 184.387C795.526 179.913 798.083 176.344 801.35 173.68C804.617 170.982 808.275 169.046 812.323 167.874C816.371 166.667 820.473 166.063 824.628 166.063C827.753 166.063 831.002 166.472 834.375 167.288C837.785 168.105 840.945 169.526 843.857 171.55C846.769 173.538 849.13 176.326 850.941 179.913C852.753 183.464 853.658 187.974 853.658 193.442V249H844.177V236.056H843.591C842.454 238.471 840.767 240.815 838.53 243.087C836.293 245.36 833.488 247.224 830.114 248.68C826.741 250.136 822.781 250.864 818.236 250.864ZM819.514 242.182C824.557 242.182 828.924 241.063 832.618 238.826C836.311 236.589 839.152 233.624 841.14 229.93C843.165 226.202 844.177 222.1 844.177 217.626V205.8C843.466 206.475 842.277 207.079 840.608 207.611C838.974 208.144 837.074 208.624 834.908 209.05C832.777 209.44 830.647 209.778 828.516 210.062C826.385 210.346 824.468 210.594 822.763 210.808C818.147 211.376 814.205 212.263 810.938 213.471C807.671 214.678 805.167 216.347 803.427 218.478C801.687 220.573 800.817 223.272 800.817 226.575C800.817 231.546 802.593 235.399 806.144 238.134C809.695 240.832 814.152 242.182 819.514 242.182ZM911.107 167.182V175.438H872.062V167.182H911.107ZM884.26 147.58H893.795V227.64C893.795 231.049 894.381 233.73 895.553 235.683C896.725 237.601 898.252 238.968 900.134 239.785C902.016 240.566 904.022 240.957 906.153 240.957C907.396 240.957 908.461 240.886 909.349 240.744C910.237 240.566 911.018 240.388 911.693 240.211L913.717 248.787C912.793 249.142 911.657 249.462 910.308 249.746C908.958 250.065 907.289 250.225 905.301 250.225C901.82 250.225 898.465 249.462 895.233 247.935C892.037 246.408 889.409 244.135 887.35 241.116C885.29 238.098 884.26 234.352 884.26 229.877V147.58ZM963.721 250.705C956.406 250.705 950.032 248.876 944.598 245.218C939.201 241.56 935.01 236.553 932.027 230.197C929.044 223.84 927.553 216.596 927.553 208.464C927.553 200.261 929.062 192.963 932.081 186.571C935.134 180.179 939.36 175.172 944.758 171.55C950.156 167.892 956.424 166.063 963.561 166.063C969.03 166.063 973.984 167.129 978.423 169.259C982.862 171.354 986.519 174.32 989.396 178.155C992.308 181.955 994.137 186.393 994.882 191.472H985.294C984.3 186.855 981.903 182.913 978.103 179.646C974.339 176.344 969.545 174.692 963.721 174.692C958.501 174.692 953.884 176.113 949.872 178.954C945.859 181.759 942.716 185.683 940.443 190.726C938.206 195.733 937.088 201.539 937.088 208.144C937.088 214.785 938.188 220.662 940.39 225.776C942.592 230.854 945.681 234.831 949.659 237.707C953.671 240.584 958.359 242.022 963.721 242.022C967.343 242.022 970.646 241.347 973.629 239.998C976.647 238.613 979.169 236.66 981.193 234.138C983.252 231.617 984.637 228.616 985.348 225.136H994.936C994.225 230.072 992.468 234.476 989.662 238.347C986.892 242.182 983.288 245.2 978.849 247.402C974.446 249.604 969.403 250.705 963.721 250.705ZM1024.74 197.864V249H1015.26V139.909H1024.74V180.019H1025.59C1027.51 175.793 1030.47 172.42 1034.49 169.898C1038.53 167.377 1043.65 166.116 1049.83 166.116C1055.37 166.116 1060.23 167.253 1064.42 169.526C1068.61 171.798 1071.88 175.154 1074.22 179.593C1076.57 184.032 1077.74 189.501 1077.74 195.999V249H1068.2V196.585C1068.2 189.838 1066.32 184.529 1062.56 180.658C1058.83 176.752 1053.79 174.799 1047.43 174.799C1043.06 174.799 1039.17 175.722 1035.76 177.569C1032.36 179.415 1029.66 182.079 1027.67 185.559C1025.72 189.004 1024.74 193.105 1024.74 197.864Z" fill="#3D3D5C"/>
<path d="M45.4533 250.57C34.1685 248.213 29.6505 234.536 37.3103 225.92L105.671 149.029C113.349 140.393 127.499 143.317 131.124 154.29L163.475 252.22C167.1 263.193 157.477 273.971 146.165 271.608L45.4533 250.57Z" fill="#56D9CA" fill-opacity="0.5"/>
<rect x="106.962" y="196.348" width="115" height="115" rx="15" transform="rotate(-56.5651 106.962 196.348)" fill="#9066EA" fill-opacity="0.52"/>
</g>
<defs>
<radialGradient id="paint0_radial_2012_2" cx="0" cy="0" r="1" gradientTransform="matrix(-71.6731 52.4022 -50.6683 -69.9505 153.472 172.715)" gradientUnits="userSpaceOnUse">
<stop stop-color="#6BAEE8"/>
<stop offset="1" stop-color="#4880CC"/>
</radialGradient>
<clipPath id="clip0_2012_2">
<rect width="1135" height="392" fill="white"/>
</clipPath>
</defs>
</svg>
